# xmcd CD database file
#
# Track frame offsets:
#	150
#	16187
#	37577
#	54307
#	73440
#	91842
#	106367
#	122580
#	140032
#	159917
#	178270
#	194892
#	211080
#	229040
#	244662
#	262755
#	281187
#	300467
#
# Disc length: 4211 seconds
#
# Revision: 0
# Processed by: cddbd v1.5PL3 Copyright (c) Steve Scherf et al.
# Submitted via: CDex 1.51
#
DISCID=f6107112
DTITLE=Various Artist - 80'sアイドルJAPAN 2
DYEAR=1998
DGENRE=Pop
TTITLE0=岡田有希子/二人だけのセレモニー
TTITLE1=斉藤由貴/卒業
TTITLE2=奥田圭子/夢ください−知・的・優・遊−
TTITLE3=井森美幸/瞳の誓い
TTITLE4=本田美奈子/殺意のバカンス
TTITLE5=佐野量子/蒼いピアニシモ
TTITLE6=森川美穂/教室
TTITLE7=新田恵利/冬のオペラグラス
TTITLE8=西村知美/夢色のメッセージ
TTITLE9=山瀬まみ/メロンのためいき
TTITLE10=杉浦幸/４月列車
TTITLE11=石野陽子/雨のチャペル通り
TTITLE12=うしろゆびさされ組/象さんのすきゃんてぃ
TTITLE13=浅倉亜季/南の風・夏少女
TTITLE14=高井麻巳子/シンデレラたちへの伝言
TTITLE15=福永恵規/ハートのIgnition
TTITLE16=八木さおり/瞳で片想い
TTITLE17=おニャン子クラブ/早口言葉でサヨナラを
EXTD=YEAR: 1998
EXTT0=
EXTT1=
EXTT2=
EXTT3=
EXTT4=
EXTT5=
EXTT6=
EXTT7=
EXTT8=
EXTT9=
EXTT10=
EXTT11=
EXTT12=
EXTT13=
EXTT14=
EXTT15=
EXTT16=
EXTT17=
PLAYORDER=
